<?xml version="1.0" encoding="UTF-8"?>
<!DOCTYPE svg PUBLIC "-//W3C//DTD SVG 1.1//EN" "http://www.w3.org/Graphics/SVG/1.1/DTD/svg11.dtd">
<!-- Creator: CorelDRAW 2018 (64 Bit Versão de avaliação) -->
<svg xmlns="http://www.w3.org/2000/svg" xml:space="preserve" width="3.93701in" height="3.93701in" version="1.1" shape-rendering="geometricPrecision" text-rendering="geometricPrecision" image-rendering="optimizeQuality" fill-rule="evenodd" clip-rule="evenodd"
viewBox="0 0 3937.01 3937.01"
 xmlns:xlink="http://www.w3.org/1999/xlink">
 <g id="Camada_x0020_1">
  <metadata id="CorelCorpID_0Corel-Layer"/>
  <rect fill="none" width="3937.01" height="3937.01"/>
  <path fill="#4A4A4A" d="M2454.54 2673.63c-211,80.21 -295.09,174.84 -600.39,134.35 -773.65,-102.61 -881.75,-1028.65 -575.61,-1324.44 66.11,61.31 137.76,126.43 196.86,199.71 -253.94,555.96 248.54,1034.04 774.72,775.38 53.31,44.17 169.74,146.5 204.43,215zm107.02 -1304.63c57.5,56.39 51.09,34.05 96.48,103.96 23.2,35.73 48.53,71.44 70.09,113.3 40.39,78.41 73.56,186.72 83.73,283.37 34.34,326.08 -79.26,422.57 -142.41,585.15 -87.58,-40.9 -133.19,-129.41 -208.97,-183.79 47.93,-236.07 90.4,-151.87 55.87,-460.26 -60.84,41.52 -97.93,104.48 -206.23,118 -196.8,24.56 -325.07,-134.64 -304.14,-304.02 12.61,-102.03 76.03,-137.36 112.31,-191.96 -132.83,-82.62 -300.25,-2.96 -443.91,45.17l-186.94 -195.47c132.65,-178.73 626.3,-248.41 980.64,-3.37 56.25,38.9 48.74,46.06 93.46,89.93zm1162.07 939.12c57.4,-44.7 186.67,-149.87 213.37,-190.67 -17.87,-33.24 -35.85,-46.13 -60.9,-75.65 -130.83,-154.18 -271.86,-309.4 -427.81,-440.57 -182.53,-153.51 -371.29,-291.68 -581.03,-404.64 -383.45,-206.52 -763.63,-305.22 -1209.07,-220.2 -130.09,24.83 -274.79,95.43 -382.91,108.71 -41.94,-59.19 -461.44,-479.87 -516.69,-506.6l-182.09 180.47c33.8,80.57 350.09,365.39 434.73,456.67 -86.9,80.35 -494.02,309.23 -802.42,650.37 -41.41,45.81 -66.48,83.55 -106.72,127.43 -26.24,28.61 -30.25,28.16 -55.76,61.57 -21.06,27.57 -23.05,36.48 -46.33,62.44l150.57 142.44c614.69,531.52 1545.86,881.1 2389.85,651.47 134.2,-36.51 115.05,-56.28 191.81,22.56 85.64,87.96 372.76,388.49 436.89,424.59l189.67 -195.68 -383.53 -394.08c37.85,-36.69 85.44,-50.87 132.69,-74.57l381.37 -219.26c84.94,-57.48 158.78,-107.98 234.32,-166.81z"/>
 </g>
</svg>
