<?xml version="1.0" encoding="UTF-8"?>
<!DOCTYPE svg PUBLIC "-//W3C//DTD SVG 1.1//EN" "http://www.w3.org/Graphics/SVG/1.1/DTD/svg11.dtd">
<!-- Creator: CorelDRAW 2018 (64 Bit Versão de avaliação) -->
<svg xmlns="http://www.w3.org/2000/svg" xml:space="preserve" width="3.93701in" height="3.93701in" version="1.1" shape-rendering="geometricPrecision" text-rendering="geometricPrecision" image-rendering="optimizeQuality" fill-rule="evenodd" clip-rule="evenodd"
viewBox="0 0 3937.01 3937.01"
 xmlns:xlink="http://www.w3.org/1999/xlink">
 <g id="Camada_x0020_1">
  <metadata id="CorelCorpID_0Corel-Layer"/>
  <rect fill="none" width="3937.01" height="3937.01"/>
  <g id="_2175407313200">
   <path fill="#4A4A4A" d="M1860.28 1127.03c495.86,-61.35 891.42,297.85 950.68,724.79 69.37,499.83 -301.97,904.9 -731.2,958.83 -310.56,39.02 -601.49,-102.7 -760.07,-288.47 -20.92,-24.5 -65.2,-93.46 -87.19,-130.36 -298.51,-500.93 17.24,-1189.25 627.79,-1264.79zm-1860.28 991.68c28.43,47.94 51.9,53.13 93.71,92.61 178.08,168.13 521.99,380.58 744.57,490.93 321.77,159.54 718.17,289.8 1135.23,288.94 802.16,-1.64 1548.17,-480 1963.5,-861.47 -45.78,-99.27 -278.71,-341.75 -367.78,-420.48 -437.9,-387.07 -949.74,-758.39 -1595.78,-763.4 -540.43,-4.19 -1155.26,345.1 -1502.74,672.38 -81.5,76.76 -428.37,417.45 -470.71,500.48z"/>
   <path fill="#4A4A4A" d="M2507.95 1817.78l-40.24 27.91c-271.75,222.8 -489.69,-25.16 -459.69,-225.53 17.76,-118.62 78.14,-121.05 111.17,-197.75 -597.68,-118.47 -948.38,519.19 -547.43,948.48 421.11,450.87 1140.21,-77.6 936.19,-553.11z"/>
  </g>
 </g>
</svg>
