<?xml version="1.0" encoding="UTF-8"?>
<!DOCTYPE svg PUBLIC "-//W3C//DTD SVG 1.1//EN" "http://www.w3.org/Graphics/SVG/1.1/DTD/svg11.dtd">
<!-- Creator: CorelDRAW 2018 (64 Bit Versão de avaliação) -->
<svg xmlns="http://www.w3.org/2000/svg" xml:space="preserve" width="2.38602in" height="2.38606in" version="1.1" style="shape-rendering:geometricPrecision; text-rendering:geometricPrecision; image-rendering:optimizeQuality; fill-rule:evenodd; clip-rule:evenodd"
viewBox="0 0 2386.02 2386.05"
 xmlns:xlink="http://www.w3.org/1999/xlink">
 <defs>
  <style type="text/css">
   <![CDATA[
    .str0 {stroke:#E6E6E6;stroke-width:6.94;stroke-miterlimit:2.61313}
    .fil2 {fill:#646464;fill-rule:nonzero}
    .fil0 {fill:#787878;fill-rule:nonzero}
    .fil1 {fill:#969696;fill-rule:nonzero}
    .fil3 {fill:#AAAAAA;fill-rule:nonzero}
    .fil5 {fill:#BEBEBE;fill-rule:nonzero}
    .fil4 {fill:#C8C8C8;fill-rule:nonzero}
    .fil6 {fill:gainsboro;fill-rule:nonzero}
   ]]>
  </style>
 </defs>
 <g id="Camada_x0020_1">
  <metadata id="CorelCorpID_0Corel-Layer"/>
  <path class="fil0" d="M1950.92 1404.85c9.93,-35.46 17.43,-71.92 22.3,-109.19l412.79 0c-7.99,93.89 -26.86,184.71 -55.39,271.22l-379.69 -162.03 -0.01 0z"/>
  <path class="fil1" d="M1817.01 1671.86c19.21,-24.97 36.94,-51.11 53.1,-78.31l379.75 162.03c-39.78,74.37 -87.18,144.06 -141.08,208.05l-291.76 -291.77 -0.01 0z"/>
  <path class="fil2" d="M1955.28 997.35c7.8,30.35 13.8,61.39 17.94,93.03l412.79 0c-7.25,-85.15 -23.42,-167.79 -47.68,-246.95l-383.05 153.92 0 -0z"/>
  <path class="fil3" d="M1579.07 1878.5c32.42,-18.33 63.41,-38.9 92.79,-61.48l291.77 291.77c-70.43,59.37 -147.76,110.79 -230.61,152.83l-153.95 -383.12 -0 -0z"/>
  <path class="fil4" d="M819.16 2330.65l162.04 -379.71c35.46,9.93 71.92,17.43 109.19,22.3l0 412.8c-93.89,-8 -184.71,-26.89 -271.22,-55.39l-0.01 0z"/>
  <path class="fil5" d="M1295.66 2386.04l0 -412.8c31.64,-4.14 62.69,-10.15 93.04,-17.94l153.92 383.09c-79.18,24.21 -161.81,40.39 -246.96,47.66l0 -0.01z"/>
  <g id="_2766147651360">
   <path class="fil6 str0" d="M1593.55 515.94l162.04 -379.74c74.36,39.75 144.05,87.12 208.05,141.06l-291.77 291.78c-24.97,-19.2 -51.12,-36.94 -78.32,-53.09l0 -0.01z"/>
   <path class="fil6" d="M1295.66 412.81l0 -412.81c93.9,8.01 184.71,26.89 271.22,55.39l-162.03 379.72c-35.46,-9.93 -71.91,-17.42 -109.19,-22.3z"/>
   <path class="fil6" d="M1817.01 714.19l291.76 -291.78c59.39,70.43 110.78,147.76 152.89,230.61l-383.16 153.95c-18.34,-32.43 -38.91,-63.41 -61.49,-92.78z"/>
   <path class="fil6" d="M843.42 47.67c79.18,-24.22 161.8,-40.4 246.95,-47.67l0 412.81c-31.64,4.14 -62.69,10.14 -93.03,17.94l-153.92 -383.07 0 -0.01z"/>
   <path class="fil6" d="M422.41 2108.78l291.78 -291.77c24.96,19.19 51.11,36.94 78.3,53.09l-162.03 379.73c-74.37,-39.74 -144.06,-87.1 -208.05,-141.05l0 0z"/>
   <path class="fil6" d="M124.42 1733.02l383.12 -153.94c18.33,32.42 38.91,63.41 61.49,92.78l-291.78 291.77c-59.36,-70.43 -110.78,-147.75 -152.83,-230.61l0 0z"/>
   <path class="fil6" d="M0.01 1090.38c8,-93.89 26.89,-184.71 55.39,-271.22l379.71 162.04c-9.93,35.46 -17.43,71.92 -22.31,109.19l-412.8 0 0.01 -0.01z"/>
   <path class="fil6" d="M136.2 630.46c39.75,-74.37 87.11,-144.06 141.05,-208.05l291.78 291.78c-19.21,24.96 -36.94,51.11 -53.09,78.3l-379.73 -162.04 -0.01 0.01z"/>
   <path class="fil6" d="M422.41 277.26c70.43,-59.36 147.75,-110.78 230.63,-152.83l153.94 383.12c-32.43,18.33 -63.42,38.89 -92.78,61.48l-291.78 -291.78 -0.01 0.01z"/>
   <path class="fil6" d="M0.01 1295.66l412.8 0c4.14,31.64 10.15,62.69 17.94,93.04l-383.07 153.93c-24.22,-79.18 -40.4,-161.81 -47.66,-246.96l-0.01 -0.01z"/>
  </g>
 </g>
</svg>
