<?xml version="1.0" encoding="UTF-8"?>
<!DOCTYPE svg PUBLIC "-//W3C//DTD SVG 1.1//EN" "http://www.w3.org/Graphics/SVG/1.1/DTD/svg11.dtd">
<!-- Creator: CorelDRAW 2018 (64 Bit Versão de avaliação) -->
<svg xmlns="http://www.w3.org/2000/svg" xml:space="preserve" width="9.93342in" height="9.92602in" version="1.1" style="shape-rendering:geometricPrecision; text-rendering:geometricPrecision; image-rendering:optimizeQuality; fill-rule:evenodd; clip-rule:evenodd"
viewBox="0 0 9940.53 9933.13"
 xmlns:xlink="http://www.w3.org/1999/xlink">
 <defs>
  <style type="text/css">
   <![CDATA[
    .fil0 {fill:#1F1F1F}
   ]]>
  </style>
 </defs>
 <g id="Camada_x0020_1">
  <metadata id="CorelCorpID_0Corel-Layer"/>
  <g id="_3240542361888">
   <path class="fil0" d="M4571.83 16.54c-3410.11,268.55 -5498.8,3789.44 -4164.69,6930.58 811.01,1909.51 2819.2,3139.88 4957.36,2970.47 1099.63,-87.13 2350.24,-624.18 3053.05,-1388.93 78.35,-85.26 177.06,-155.1 249.07,-249.25 173.38,-226.69 240.38,-277 433.06,-563.98 258.06,-384.36 484.99,-841.26 634.27,-1359.14 90.88,-315.26 323.32,-1474.13 134.95,-1744.37 -151.44,-217.28 -530.52,-168.4 -612.77,97.68 -37.5,121.29 -35.75,707.01 -70.03,925.01 -312.39,1986.8 -2055.97,3653.29 -4329.7,3600.58 -2197.7,-50.94 -3914.75,-1746.49 -4140.88,-3810.25 -351.1,-3204.13 2873.11,-5633.65 5835.4,-4426.7 226.95,92.46 504.63,310.2 729.66,89.17 88.67,-87.1 133.38,-244.41 70.72,-392.27 -96.34,-227.33 -762.23,-430.76 -996.15,-497.4 -583.68,-166.24 -1145.79,-231.39 -1783.31,-181.18z"/>
   <path class="fil0" d="M4909.98 5710.04c-124.2,-59.98 -1601.82,-1555.42 -1908.78,-1855.47 -153.37,-149.91 -406.24,-326.56 -620.41,-63.17 -211.82,260.48 59.12,496.95 168.07,602.02l1898.31 1849.61c169.56,163.75 301.92,392.34 586.89,267.47 93.7,-41.06 397.39,-365.14 494.85,-459.19 635.56,-613.33 1261.79,-1238.52 1896.1,-1851.79l2360.2 -2318.93c163.38,-157.21 238.96,-462.67 -8,-599.43 -300.14,-166.2 -503.18,115.17 -621.77,229.78 -162.05,156.63 -310.55,321.73 -473.45,479.5l-2830.5 2780.25c-217.23,209.72 -788.25,739.47 -941.52,939.35z"/>
  </g>
 </g>
</svg>
