<?xml version="1.0" encoding="UTF-8"?>
<!DOCTYPE svg PUBLIC "-//W3C//DTD SVG 1.1//EN" "http://www.w3.org/Graphics/SVG/1.1/DTD/svg11.dtd">
<!-- Creator: CorelDRAW 2018 (64 Bit Versão de avaliação) -->
<svg xmlns="http://www.w3.org/2000/svg" xml:space="preserve" width="8in" height="8in" version="1.1" style="shape-rendering:geometricPrecision; text-rendering:geometricPrecision; image-rendering:optimizeQuality; fill-rule:evenodd; clip-rule:evenodd"
viewBox="0 0 8000 8000"
 xmlns:xlink="http://www.w3.org/1999/xlink">
 <defs>
  <style type="text/css">
   <![CDATA[
    .fil0 {fill:none}
    .fil1 {fill:#F5F5F5}
   ]]>
  </style>
 </defs>
 <g id="Camada_x0020_1">
  <metadata id="CorelCorpID_0Corel-Layer"/>
  <rect class="fil0" width="8000" height="8000"/>
  <g id="_1942823749648">
   <path class="fil1" d="M6564.04 3519.24l-5128.08 0c-352.56,0 -641.01,288.45 -641.01,641.01l0 3044.8c0,352.56 288.45,641.01 641.01,641.01l5128.08 -0c352.56,0 641.01,-288.45 641.01,-641.01l0 -3044.8c0,-352.56 -288.46,-641.01 -641.01,-641.01zm-1762.78 3445.43c-240.38,160.25 -512.81,240.38 -801.26,240.38 -96.15,0 -192.3,-16.03 -288.45,-32.05 -384.61,-80.13 -705.11,-288.45 -913.44,-608.96l528.83 -352.56c112.18,176.28 304.48,304.48 512.81,336.53 208.33,48.08 416.65,0 608.96,-128.2 368.58,-240.38 464.73,-753.19 224.35,-1105.74 -112.18,-176.28 -304.48,-304.48 -512.81,-336.53 -208.33,-48.08 -416.65,0 -608.96,128.2 -48.08,32.05 -80.13,64.1 -112.18,96.15l560.88 560.88 -1442.27 0 0 -1442.27 416.65 416.65c64.1,-64.1 144.23,-128.2 208.33,-176.28 320.5,-208.33 705.11,-288.45 1089.72,-224.35 384.61,80.13 705.11,288.45 913.44,608.96 448.7,673.07 272.43,1570.48 -384.61,2019.19z"/>
   <path class="fil1" d="M1435.96 2734l0 64.1c0,-16.02 0,-32.05 0,-64.1 0,0 0,0 0,0z"/>
   <path class="fil1" d="M1596.21 2878.23l641.01 0c96.15,0 160.25,-48.08 160.25,-144.23l0 -16.02c0,-913.44 785.24,-1666.63 1714.7,-1602.52 849.34,64.1 1490.35,801.26 1490.35,1666.63l0 -48.08c0,96.15 64.1,144.23 160.25,144.23l641.01 0c96.15,0 160.25,-48.08 160.25,-144.23l0 -16.02c0,-1458.3 -1217.92,-2628.14 -2692.24,-2564.04 -1362.15,64.1 -2403.79,1217.92 -2435.84,2580.07 16.02,80.12 80.13,144.22 160.25,144.22z"/>
  </g>
 </g>
</svg>
