<?xml version="1.0" encoding="UTF-8"?>
<!DOCTYPE svg PUBLIC "-//W3C//DTD SVG 1.1//EN" "http://www.w3.org/Graphics/SVG/1.1/DTD/svg11.dtd">
<!-- Creator: CorelDRAW 2018 (64 Bit Versão de avaliação) -->
<svg xmlns="http://www.w3.org/2000/svg" xml:space="preserve" width="3.12301in" height="1.51335in" version="1.1" style="shape-rendering:geometricPrecision; text-rendering:geometricPrecision; image-rendering:optimizeQuality; fill-rule:evenodd; clip-rule:evenodd"
viewBox="0 0 2962.65 1435.64"
 xmlns:xlink="http://www.w3.org/1999/xlink">
 <defs>
  <style type="text/css">
   <![CDATA[
    .fil0 {fill:whitesmoke}
    .fil1 {fill:whitesmoke;fill-rule:nonzero}
   ]]>
  </style>
 </defs>
 <g id="Camada_x0020_1">
  <metadata id="CorelCorpID_0Corel-Layer"/>
  <rect class="fil0" x="247.35" y="659.22" width="854.87" height="116.31" rx="87.97" ry="58.16"/>
  <rect class="fil0" x="-0" y="357.68" width="854.87" height="116.31" rx="87.97" ry="58.16"/>
  <rect class="fil0" x="-0" y="361.07" width="854.87" height="116.31" rx="87.97" ry="58.16"/>
  <path class="fil1" d="M2919.5 780.89l-1423.87 647.86c-62.35,28.38 -126.34,-36.21 -97.26,-98.27l248.37 -529.98 503.46 0c45.72,0 83.13,-37.4 83.13,-83.13l0 0c0,-45.72 -37.41,-83.12 -83.13,-83.12l-503.87 0 -251.37 -528.69c-29.44,-61.85 34.13,-126.89 96.65,-98.86l1427.47 639.9c57.89,25.94 58.13,108.02 0.41,134.29z"/>
  <rect class="fil0" x="10.02" y="970.5" width="854.87" height="116.31" rx="87.97" ry="58.16"/>
 </g>
</svg>
