<?xml version="1.0" encoding="UTF-8" standalone="no"?>
<!-- Creator: CorelDRAW 2018 (64 Bit Versão de avaliação) -->

<svg
   xml:space="preserve"
   width="8in"
   height="8in"
   version="1.1"
   style="shape-rendering:geometricPrecision; text-rendering:geometricPrecision; image-rendering:optimizeQuality; fill-rule:evenodd; clip-rule:evenodd"
   viewBox="0 0 8000 8000"
   id="svg3"
   sodipodi:docname="reset-password-again.svg"
   inkscape:version="1.4.3 (fcd0343856, 2026-01-01)"
   xmlns:inkscape="http://www.inkscape.org/namespaces/inkscape"
   xmlns:sodipodi="http://sodipodi.sourceforge.net/DTD/sodipodi-0.dtd"
   xmlns="http://www.w3.org/2000/svg"
   xmlns:svg="http://www.w3.org/2000/svg"><sodipodi:namedview
   id="namedview3"
   pagecolor="#ffffff"
   bordercolor="#000000"
   borderopacity="0.25"
   inkscape:showpageshadow="2"
   inkscape:pageopacity="0.0"
   inkscape:pagecheckerboard="0"
   inkscape:deskcolor="#d1d1d1"
   inkscape:document-units="in"
   inkscape:zoom="0.63932292"
   inkscape:cx="383.21792"
   inkscape:cy="384"
   inkscape:window-width="1366"
   inkscape:window-height="699"
   inkscape:window-x="0"
   inkscape:window-y="0"
   inkscape:window-maximized="1"
   inkscape:current-layer="Camada_x0020_1" />
 <defs
   id="defs1">
  <style
   type="text/css"
   id="style1">
   <![CDATA[
    .fil0 {fill:none}
    .fil1 {fill:#F5F5F5}
   ]]>
  </style>
 
   
   
   
  </defs>
 <g
   id="Camada_x0020_1"
   inkscape:label="Camada 1">
  <metadata
   id="CorelCorpID_0Corel-Layer" />
  <rect
   class="fil0"
   width="8000"
   height="8000"
   id="rect1" />
  <path
   class="fil1"
   d="M 6564.04,3519.24 H 1435.96 c -352.56,0 -641.01,288.45 -641.01,641.01 v 3044.8 c 0,352.56 288.45,641.01 641.01,641.01 h 5128.08 c 352.56,0 641.01,-288.45 641.01,-641.01 v -3044.8 c 0,-352.56 -288.46,-641.01 -641.01,-641.01 z"
   id="path1"
   sodipodi:nodetypes="sssssssss" /><path
   class="fil1"
   d="m 1435.96,2734 v 64.1 z"
   id="path2"
   sodipodi:nodetypes="ccc" /><path
   class="fil1"
   d="m 1596.21,2878.23 h 641.01 c 96.15,0 160.25,-48.08 160.25,-144.23 v -16.02 c 0,-913.44 785.24,-1666.63 1714.7,-1602.52 849.34,64.1 1490.35,801.26 1490.35,1666.63 v -48.08 c 0,96.15 64.1,144.23 160.25,144.23 h 641.01 c 96.15,0 160.25,-48.08 160.25,-144.23 v -16.02 C 6564.03,1259.69 5346.11,89.85 3871.79,153.95 2509.64,218.05 1468,1371.87 1435.95,2734.02 c 16.02,80.12 80.13,144.22 160.25,144.22 z"
   id="path3"
   sodipodi:nodetypes="cssscccsssscccc" />
 </g>
</svg>
