<?xml version="1.0" encoding="UTF-8"?>
<!DOCTYPE svg PUBLIC "-//W3C//DTD SVG 1.1//EN" "http://www.w3.org/Graphics/SVG/1.1/DTD/svg11.dtd">
<!-- Creator: CorelDRAW 2018 (64 Bit Versão de avaliação) -->
<svg xmlns="http://www.w3.org/2000/svg" xml:space="preserve" width="9.93342in" height="9.92602in" version="1.1" style="shape-rendering:geometricPrecision; text-rendering:geometricPrecision; image-rendering:optimizeQuality; fill-rule:evenodd; clip-rule:evenodd"
viewBox="0 0 9933.43 9926.02"
 xmlns:xlink="http://www.w3.org/1999/xlink">
 <defs>
  <style type="text/css">
   <![CDATA[
    .fil0 {fill:#1F1F1F}
   ]]>
  </style>
 </defs>
 <g id="Camada_x0020_1">
  <metadata id="CorelCorpID_0Corel-Layer"/>
  <path class="fil0" d="M4568.56 16.53c-3407.67,268.35 -5494.87,3786.73 -4161.71,6925.62 810.43,1908.15 2817.19,3137.64 4953.82,2968.34 1098.84,-87.07 2348.56,-623.74 3050.86,-1387.94 78.3,-85.2 176.93,-154.99 248.89,-249.07 173.25,-226.52 240.21,-276.8 432.75,-563.58 257.88,-384.08 484.64,-840.66 633.82,-1358.17 90.81,-315.04 323.09,-1473.08 134.86,-1743.13 -151.33,-217.12 -530.14,-168.28 -612.33,97.61 -37.47,121.2 -35.72,706.5 -69.98,924.35 -312.17,1985.38 -2054.5,3650.68 -4326.6,3598.01 -2196.13,-50.91 -3911.95,-1745.24 -4137.92,-3807.52 -350.85,-3201.84 2871.06,-5629.62 5831.23,-4423.54 226.78,92.4 504.27,309.98 729.14,89.1 88.61,-87.04 133.28,-244.24 70.67,-391.99 -96.27,-227.17 -761.68,-430.45 -995.44,-497.04 -583.26,-166.13 -1144.97,-231.22 -1782.04,-181.05z"/>
  <rect class="fil0" transform="matrix(0.224916 0.224916 -0.330832 0.330832 7100.91 2341.5)" width="2166.67" height="14375.01" rx="1083.34" ry="1083.34"/>
  <rect class="fil0" transform="matrix(-0.224916 0.224916 0.330832 0.330832 2832.51 2341.5)" width="2166.67" height="14375.01" rx="1083.34" ry="1083.34"/>
 </g>
</svg>
